<?xml version="1.0" encoding="UTF-8" standalone="no"?><!DOCTYPE svg PUBLIC "-//W3C//DTD SVG 1.1//EN" "http://www.w3.org/Graphics/SVG/1.1/DTD/svg11.dtd"><svg width="100%" height="100%" viewBox="0 0 2271 428" version="1.1" xmlns="http://www.w3.org/2000/svg" xmlns:xlink="http://www.w3.org/1999/xlink" xml:space="preserve" xmlns:serif="http://www.serif.com/" style="fill-rule:evenodd;clip-rule:evenodd;stroke-linejoin:round;stroke-miterlimit:2;"><g><path d="M448.982,244.132l127.915,-244.132l104.147,196.535l73.911,-90.708l89.029,40.315l127.664,-120.945l144.462,174.698l78.95,-129.344l131.024,114.226l52.073,-57.113l99.108,53.753l114.225,-141.102l129.344,144.462l119.166,-105.827l83.461,78.018l236.42,-151.246l110.119,200.849l0,221.146l-2270,0l0,-244.297l96.415,79.493l167.325,-144.627l185.242,125.846Z" style="fill:#7e92c5;"/><g><clipPath id="_clip1"><path d="M448.982,244.132l127.915,-244.132l104.147,196.535l73.911,-90.708l89.029,40.315l127.664,-120.945l144.462,174.698l78.95,-129.344l131.024,114.226l52.073,-57.113l99.108,53.753l114.225,-141.102l129.344,144.462l119.166,-105.827l83.461,78.018l236.42,-151.246l110.119,200.849l0,221.146l-2270,0l0,-244.297l96.415,79.493l167.325,-144.627l185.242,125.846Z"/></clipPath><g clip-path="url(#_clip1)"><path d="M472.361,124.236c0,0 154,-58 160,-102c6,-44 70,102 70,102l-12,48c0,0 98,-42 114,-72c16,-30 48,18 48,18c0,0 82,22 72,-76c40,10 118,66 134,10c16,-56 102,22 102,22c0,0 144,122 160,84c16,-38 84,10 124,-26c40,-36 86,48 160,-70c74,-118 42,10 90,36c48,26 176,56 240,46c38.593,-6.031 223.356,-115.972 309.197,-55.671c55.633,39.081 26.442,-166.329 26.442,-166.329l-2270,-54l0,224c90.67,156.137 322.355,223.278 472.361,32Z" style="fill:#c1cade;"/></g></g><path d="M1935.02,290.132l-276.062,-109.597l-243.911,113.292l-123.029,-83.685l-86.126,29.753l-166.95,-101.344l-241.024,108.226l-85.406,-120.462l-163.344,58.462l-161.166,-55.827l-155.461,74.018l-94.42,-169.246l-138.119,172.849l0,221.146l2270,0l0,-244.297l-181.74,-95.134l-153.242,201.846Z" style="fill:#aab9db;"/><path d="M2270,320.846c1.435,19.181 0,106.871 0,106.871l-2270,0l0,-231.105c0,0 942.052,101.736 1299.27,134.306c357.219,32.57 373.201,-85.7 511.124,-88.754c137.922,-3.053 310.96,81.736 459.606,78.682Z" style="fill:#bedae4;"/><path d="M2270,320.846c1.435,19.181 0,106.871 0,106.871l-2270,0l0,-63.105c0,0 598.052,-72.264 955.27,-39.694c357.219,32.57 637.201,74.3 775.124,71.246c137.922,-3.053 390.96,-72.264 539.606,-75.318Z" style="fill:#d0e4ec;"/></g></svg>