<?xml version="1.0" encoding="UTF-8" standalone="no"?><!DOCTYPE svg PUBLIC "-//W3C//DTD SVG 1.1//EN" "http://www.w3.org/Graphics/SVG/1.1/DTD/svg11.dtd"><svg width="100%" height="100%" viewBox="0 0 130 102" version="1.1" xmlns="http://www.w3.org/2000/svg" xmlns:xlink="http://www.w3.org/1999/xlink" xml:space="preserve" xmlns:serif="http://www.serif.com/" style="fill-rule:evenodd;clip-rule:evenodd;stroke-linecap:round;stroke-linejoin:round;stroke-miterlimit:1.5;"><g><path d="M24.463,28.42c0,0 -6.322,-0.012 -12.543,-0.025c-3.168,-0.006 -6.21,1.246 -8.455,3.484c-2.244,2.237 -3.508,5.274 -3.511,8.444c-0.008,6.394 -0.017,14.244 -0.025,20.637c-0.004,3.17 1.252,6.211 3.493,8.453c2.239,2.243 5.278,3.504 8.448,3.504c6.625,0 13.538,0.001 13.538,0.001c0,0 23.096,13.452 41.532,24.191c4.617,2.688 10.318,2.705 14.949,0.044c4.633,-2.662 7.49,-7.595 7.492,-12.937c0.009,-20.007 0.021,-47.542 0.03,-67.54c0.002,-5.34 -2.849,-10.274 -7.474,-12.94c-4.626,-2.667 -10.324,-2.66 -14.943,0.019c-18.779,10.89 -42.531,24.665 -42.531,24.665Z" style="fill:#fff;stroke:#fff;stroke-width:0.6px;"/><path d="M97.307,25.345c7.119,16.787 5.975,33.606 -0.088,50.443c-0.817,2.269 0.363,4.776 2.632,5.593c2.27,0.818 4.776,-0.362 5.594,-2.631c6.827,-18.965 7.928,-37.909 -0.089,-56.817c-0.942,-2.222 -3.51,-3.261 -5.731,-2.318c-2.221,0.942 -3.259,3.51 -2.318,5.73Z" style="fill:#fff;"/><path d="M116.244,32.767c3.961,12.441 3.318,24.188 -0.025,35.458c-0.685,2.312 0.635,4.747 2.948,5.434c2.313,0.685 4.747,-0.635 5.433,-2.948c3.828,-12.902 4.51,-26.352 -0.025,-40.597c-0.732,-2.297 -3.192,-3.57 -5.491,-2.838c-2.299,0.732 -3.571,3.192 -2.84,5.491Z" style="fill:#fff;"/></g></svg>