<?xml version="1.0" encoding="UTF-8" standalone="no"?><!DOCTYPE svg PUBLIC "-//W3C//DTD SVG 1.1//EN" "http://www.w3.org/Graphics/SVG/1.1/DTD/svg11.dtd"><svg width="100%" height="100%" viewBox="0 0 378 352" version="1.1" xmlns="http://www.w3.org/2000/svg" xmlns:xlink="http://www.w3.org/1999/xlink" xml:space="preserve" xmlns:serif="http://www.serif.com/" style="fill-rule:evenodd;clip-rule:evenodd;stroke-linejoin:round;stroke-miterlimit:2;"><g><ellipse cx="188.943" cy="324.423" rx="188.943" ry="27.125" style="fill:#7f8fb7;fill-opacity:0.5;"/><path d="M255.412,9.608c-24.892,-15.599 -58.043,-13.289 -85.741,14.966c-21.102,21.525 -98.261,45.57 -100.084,133.444c-47.596,4.361 -71.444,81.694 -30.555,122.845c-14.05,5.474 -20.922,26.782 -9.172,35.905c14.177,11.007 53.721,17.881 82.411,12.64c1.945,0.589 2.667,0.301 4.596,0.819c4.264,11.748 71.889,15.74 74.661,5.42c6.944,-2.744 11.428,-3.358 18.611,-1.278c7.205,12.802 67.669,8.206 69.904,-4.868c23.151,10.023 67.95,-4.032 75.293,-26.942c5.934,-18.515 -11.304,-31.978 -20.106,-29.491c1.587,-33.999 -24.163,-57.723 -52.531,-76.744c0,-1.122 0.123,-1.342 0.016,-2.727c9.048,0.569 25.371,-2.171 31.313,-10.324l-9.665,-31.802c2.988,-6.977 11.446,-10.721 15.562,-24.193c4.565,-14.942 9.206,-34.036 -0.597,-55.001c0,0 14.914,-17.928 11.536,-23.384c-3.377,-5.456 -23.695,-4.365 -23.695,-4.365c-10.902,-16.443 -36.706,-25.488 -51.757,-34.92Z" style="fill:#fff;"/><g><g><clipPath id="_clip1"><path d="M255.412,9.608c-24.892,-15.599 -58.043,-13.289 -85.741,14.966c-21.102,21.525 -98.261,45.57 -100.084,133.444c-47.596,4.361 -71.444,81.694 -30.555,122.845c-14.05,5.474 -20.922,26.782 -9.172,35.905c14.177,11.007 53.721,17.881 82.411,12.64c1.945,0.589 2.667,0.301 4.596,0.819c4.264,11.748 71.889,15.74 74.661,5.42c6.944,-2.744 11.428,-3.358 18.611,-1.278c7.205,12.802 67.669,8.206 69.904,-4.868c23.151,10.023 67.95,-4.032 75.293,-26.942c5.934,-18.515 -11.304,-31.978 -20.106,-29.491c1.587,-33.999 -24.163,-57.723 -52.531,-76.744c0,-1.122 0.123,-1.342 0.016,-2.727c9.048,0.569 25.371,-2.171 31.313,-10.324l-9.665,-31.802c2.988,-6.977 11.446,-10.721 15.562,-24.193c4.565,-14.942 9.206,-34.036 -0.597,-55.001c0,0 14.914,-17.928 11.536,-23.384c-3.377,-5.456 -23.695,-4.365 -23.695,-4.365c-10.902,-16.443 -36.706,-25.488 -51.757,-34.92Z"/></clipPath><g clip-path="url(#_clip1)"><path d="M242.824,57.498c-0.823,-7.111 -26.543,-20.726 -34.903,-13.075c-5.37,4.915 0.809,30.414 4.659,30.847c7.781,-8.375 15.336,-16.169 30.244,-17.772Z" style="fill:#d4dcf0;"/><path d="M304.407,39.809c6.336,11.314 11.659,22.627 15.501,33.941l27.17,-31.179l-42.671,-2.762Z" style="fill:#d4dcf0;"/><path d="M369.837,286.221c4.198,-35.273 -87.093,-91.418 -87.079,-89.898c0.35,37.72 -0.099,76.169 -14.727,112.386c0,0 16.182,12.69 11.505,25.317c87.456,26.19 84.737,-1.048 90.301,-47.805Z" style="fill:#d4dcf0;"/><g><clipPath id="_clip2"><path d="M369.837,286.221c4.198,-35.273 -87.093,-91.418 -87.079,-89.898c0.35,37.72 -0.099,76.169 -14.727,112.386c0,0 16.182,12.69 11.505,25.317c87.456,26.19 84.737,-1.048 90.301,-47.805Z"/></clipPath><g clip-path="url(#_clip2)"><path d="M287.627,297.456c0,0 13.877,-14.623 31.709,-21.171c8.981,-3.297 24.218,-5.123 32.155,0.36c21.352,14.75 9.585,26.776 1.247,42.013c-22.476,41.073 -108.543,21.877 -65.111,-21.202Z" style="fill:#f7f9ff;"/></g></g><path d="M222.574,183.491c0,0 -45.209,-11.068 -54.875,-25.099c1.809,4.498 -3.578,12.037 -1.195,16.783c27.708,55.2 3.186,102.495 15.382,134.746c9.142,6.887 10.087,22.007 9.353,30.555l20.578,-1.715c-2.163,-4.729 -6.743,-14.695 2.962,-27.593c7.078,-41.433 -16.799,-84.594 7.795,-127.677Z" style="fill:#d4dcf0;"/><path d="M69.781,157.726c0,0 -7.421,22.739 2.024,58.509c6.532,24.739 32.301,55.06 54.566,91.071c-7.951,6.002 -16.244,16.556 -5.332,31.132c13.371,17.859 -107.379,-17.18 -107.379,-17.18c0,0 -46.145,-157.92 56.121,-163.532Z" style="fill:#d4dcf0;"/><g><clipPath id="_clip3"><path d="M69.781,157.726c0,0 -7.421,22.739 2.024,58.509c6.532,24.739 32.301,55.06 54.566,91.071c-7.951,6.002 -16.244,16.556 -5.332,31.132c13.371,17.859 -107.379,-17.18 -107.379,-17.18c0,0 -46.145,-157.92 56.121,-163.532Z"/></clipPath><g clip-path="url(#_clip3)"><path d="M38.821,280.853c0,0 25.67,-16.368 49.366,0.001c21.352,14.75 39.283,34.403 24.07,48.234c-35.198,32 -138.381,-20.121 -73.436,-48.235Z" style="fill:#f7f9ff;"/></g></g><path d="M313.753,172.387c-5.819,-2.532 -16.463,1.071 -18.323,4.548c-1.082,2.023 2.818,17.171 22.885,8.679c-2.887,-6.423 -4.562,-13.227 -4.562,-13.227Z" style="fill:#1d2c54;"/><path d="M280.714,140.358c6.283,-4.267 -0.91,-26.289 -13.098,-16.386c-11.487,9.335 8.705,19.368 13.098,16.386Z" style="fill:#1d2c54;"/><g><g><clipPath id="_clip4"><path d="M280.714,140.358c6.283,-4.267 -0.91,-26.289 -13.098,-16.386c-11.487,9.335 8.705,19.368 13.098,16.386Z"/></clipPath><g clip-path="url(#_clip4)"><path d="M279.244,127.939c1.755,1.381 2.056,3.933 0.67,5.695c-1.385,1.762 -3.936,2.071 -5.692,0.691c-1.756,-1.381 -2.056,-3.933 -0.671,-5.695c1.386,-1.762 3.937,-2.071 5.693,-0.691Z" style="fill:#fff;"/><path d="M270.002,129.449c0.641,0.372 0.87,1.178 0.51,1.8c-0.36,0.621 -1.173,0.824 -1.815,0.453c-0.641,-0.372 -0.87,-1.178 -0.51,-1.8c0.36,-0.621 1.173,-0.824 1.815,-0.453Z" style="fill:#fff;"/></g></g></g></g></g></g></g></svg>