<?xml version="1.0" encoding="UTF-8" standalone="no"?><!DOCTYPE svg PUBLIC "-//W3C//DTD SVG 1.1//EN" "http://www.w3.org/Graphics/SVG/1.1/DTD/svg11.dtd"><svg width="100%" height="100%" viewBox="0 0 135 102" version="1.1" xmlns="http://www.w3.org/2000/svg" xmlns:xlink="http://www.w3.org/1999/xlink" xml:space="preserve" xmlns:serif="http://www.serif.com/" style="fill-rule:evenodd;clip-rule:evenodd;stroke-linecap:round;stroke-linejoin:round;stroke-miterlimit:1.5;"><g><path d="M125.802,37.743c5.011,2.503 8.177,7.621 8.179,13.22c0.002,5.6 -3.159,10.72 -8.167,13.228c-21.229,10.625 -50.653,25.353 -70.416,35.245c-4.583,2.294 -10.025,2.051 -14.385,-0.641c-4.36,-2.692 -7.015,-7.449 -7.016,-12.572c-0.01,-20.514 -0.023,-49.919 -0.031,-70.433c-0.003,-5.123 2.648,-9.883 7.005,-12.578c4.359,-2.696 9.8,-2.943 14.385,-0.654c19.772,9.876 49.209,24.578 70.446,35.185Z" style="fill:#fff;stroke:#fff;stroke-width:0.59px;"/><path d="M24.155,12.827c0,-3.136 -1.247,-6.145 -3.464,-8.363c-2.218,-2.217 -5.227,-3.464 -8.364,-3.464c-3.136,0 -6.145,1.247 -8.363,3.464c-2.217,2.218 -3.464,5.227 -3.464,8.363l0,76.346c0,3.136 1.247,6.145 3.464,8.363c2.218,2.219 5.227,3.464 8.363,3.464c3.137,0 6.146,-1.245 8.364,-3.464c2.217,-2.218 3.464,-5.227 3.464,-8.363l0,-76.346Z" style="fill:#fff;stroke:#fff;stroke-width:0.59px;"/></g></svg>