<?xml version="1.0" encoding="UTF-8" standalone="no"?><!DOCTYPE svg PUBLIC "-//W3C//DTD SVG 1.1//EN" "http://www.w3.org/Graphics/SVG/1.1/DTD/svg11.dtd"><svg width="100%" height="100%" viewBox="0 0 57 102" version="1.1" xmlns="http://www.w3.org/2000/svg" xmlns:xlink="http://www.w3.org/1999/xlink" xml:space="preserve" xmlns:serif="http://www.serif.com/" style="fill-rule:evenodd;clip-rule:evenodd;stroke-linecap:round;stroke-linejoin:round;stroke-miterlimit:1.5;"><g><path d="M24.155,12.827c0,-3.136 -1.247,-6.145 -3.464,-8.363c-2.218,-2.217 -5.227,-3.464 -8.364,-3.464c-3.136,0 -6.145,1.247 -8.363,3.464c-2.217,2.218 -3.464,5.227 -3.464,8.363l0,76.346c0,3.136 1.247,6.145 3.464,8.363c2.218,2.219 5.227,3.464 8.363,3.464c3.137,0 6.146,-1.245 8.364,-3.464c2.217,-2.218 3.464,-5.227 3.464,-8.363l0,-76.346Z" style="fill:#fff;stroke:#fff;stroke-width:0.59px;"/><path d="M56.562,12.827c0,-3.136 -1.246,-6.145 -3.464,-8.363c-2.218,-2.217 -5.227,-3.464 -8.363,-3.464c-3.137,0 -6.146,1.247 -8.363,3.464c-2.219,2.218 -3.465,5.227 -3.465,8.363l0,76.346c0,3.136 1.246,6.145 3.465,8.363c2.217,2.219 5.226,3.464 8.363,3.464c3.136,0 6.145,-1.245 8.363,-3.464c2.218,-2.218 3.464,-5.227 3.464,-8.363l0,-76.346Z" style="fill:#fff;stroke:#fff;stroke-width:0.59px;"/></g></svg>