<?xml version="1.0" encoding="UTF-8" standalone="no"?><!DOCTYPE svg PUBLIC "-//W3C//DTD SVG 1.1//EN" "http://www.w3.org/Graphics/SVG/1.1/DTD/svg11.dtd"><svg width="100%" height="100%" viewBox="0 0 135 102" version="1.1" xmlns="http://www.w3.org/2000/svg" xmlns:xlink="http://www.w3.org/1999/xlink" xml:space="preserve" xmlns:serif="http://www.serif.com/" style="fill-rule:evenodd;clip-rule:evenodd;stroke-linecap:round;stroke-linejoin:round;stroke-miterlimit:1.5;"><g><path d="M8.679,37.743c-5.01,2.503 -8.177,7.621 -8.179,13.22c-0.002,5.6 3.159,10.72 8.167,13.228c21.228,10.625 50.653,25.353 70.416,35.245c4.582,2.294 10.025,2.051 14.384,-0.641c4.36,-2.692 7.015,-7.449 7.018,-12.572c0.009,-20.514 0.021,-49.919 0.03,-70.433c0.003,-5.123 -2.649,-9.883 -7.006,-12.578c-4.357,-2.696 -9.8,-2.943 -14.384,-0.654c-19.772,9.876 -49.209,24.578 -70.446,35.185Z" style="fill:#fff;stroke:#fff;stroke-width:0.59px;"/><path d="M110.326,12.827c0,-3.136 1.246,-6.145 3.464,-8.363c2.218,-2.217 5.226,-3.464 8.364,-3.464c3.136,0 6.144,1.247 8.363,3.464c2.218,2.218 3.464,5.227 3.464,8.363l0,76.346c0,3.136 -1.246,6.145 -3.464,8.363c-2.219,2.219 -5.227,3.464 -8.363,3.464c-3.138,0 -6.146,-1.245 -8.364,-3.464c-2.218,-2.218 -3.464,-5.227 -3.464,-8.363l0,-76.346Z" style="fill:#fff;stroke:#fff;stroke-width:0.59px;"/></g></svg>